<?xml version="1.0" encoding="UTF-8" standalone="no"?>
<svg width="20px" height="20px" viewBox="0 0 20 20" version="1.1" xmlns="http://www.w3.org/2000/svg" xmlns:xlink="http://www.w3.org/1999/xlink" xmlns:sketch="http://www.bohemiancoding.com/sketch/ns">
    <!-- Generator: Sketch 3.3.3 (12081) - http://www.bohemiancoding.com/sketch -->
    <title>Multimedia</title>
    <desc>Created with Sketch.</desc>
    <defs>
        <linearGradient x1="50%" y1="0%" x2="50%" y2="100%" id="linearGradient-1">
            <stop stop-color="#FFB300" offset="0%"></stop>
            <stop stop-color="#F6AB00" offset="100%"></stop>
        </linearGradient>
    </defs>
    <g id="Assets" stroke="none" stroke-width="1" fill="none" fill-rule="evenodd" sketch:type="MSPage">
        <g id="Multimedia" sketch:type="MSArtboardGroup">
            <g id="多媒体" sketch:type="MSLayerGroup">
                <path d="M15.6573343,17 C17.6963331,15.3500445 19,12.8272661 19,10 C19,5.02943725 14.9705627,1 10,1 C5.02943725,1 1,5.02943725 1,10 C1,14.6325537 4.50004954,18.4476269 9,18.9450712 L9,19 L19,19 L19,17 L15.6573343,17 Z" id="Oval-330" fill="url(#linearGradient-1)" sketch:type="MSShapeGroup"></path>
                <path d="M10,7 C11.1045695,7 12,6.1045695 12,5 C12,3.8954305 11.1045695,3 10,3 C8.8954305,3 8,3.8954305 8,5 C8,6.1045695 8.8954305,7 10,7 Z M10,17 C11.1045695,17 12,16.1045695 12,15 C12,13.8954305 11.1045695,13 10,13 C8.8954305,13 8,13.8954305 8,15 C8,16.1045695 8.8954305,17 10,17 Z M5,12 C6.1045695,12 7,11.1045695 7,10 C7,8.8954305 6.1045695,8 5,8 C3.8954305,8 3,8.8954305 3,10 C3,11.1045695 3.8954305,12 5,12 Z M15,12 C16.1045695,12 17,11.1045695 17,10 C17,8.8954305 16.1045695,8 15,8 C13.8954305,8 13,8.8954305 13,10 C13,11.1045695 13.8954305,12 15,12 Z" id="Oval-330-Copy" fill="#FFFFFF" sketch:type="MSShapeGroup" transform="translate(10.000000, 10.000000) rotate(-30.000000) translate(-10.000000, -10.000000) "></path>
            </g>
            <path d="M0,0 L1,0 L1,1 L0,1 L0,0 Z M19,19 L20,19 L20,20 L19,20 L19,19 Z" id="点-copy" opacity="0" fill="#D8D8D8" sketch:type="MSShapeGroup"></path>
        </g>
    </g>
</svg>