<?xml version="1.0" encoding="UTF-8" standalone="no"?>
<svg width="20px" height="20px" viewBox="0 0 20 20" version="1.1" xmlns="http://www.w3.org/2000/svg" xmlns:xlink="http://www.w3.org/1999/xlink" xmlns:sketch="http://www.bohemiancoding.com/sketch/ns">
    <!-- Generator: Sketch 3.3.3 (12081) - http://www.bohemiancoding.com/sketch -->
    <title>Sync</title>
    <desc>Created with Sketch.</desc>
    <defs></defs>
    <g id="Assets" stroke="none" stroke-width="1" fill="none" fill-rule="evenodd" sketch:type="MSPage">
        <g id="Sync" sketch:type="MSArtboardGroup">
            <path d="M2,10 C2,14.418278 5.581722,18 10,18 C11.9027957,18 13.6504337,17.335691 15.0236406,16.2263465 L15.0236406,16.2263465 L13.9960038,14.4757865 C12.9349701,15.4237413 11.5347813,16 10,16 C6.6862915,16 4,13.3137085 4,10 L2,10 L2,10 Z M4.72113255,3.988743 C6.12980147,2.75072098 7.97723059,2 10,2 C14.418278,2 18,5.581722 18,10 C18,10.3386603 17.9789567,10.6724058 17.9381062,11 L15.9170416,11 C15.9716012,10.6747915 16,10.3407122 16,10 C16,6.6862915 13.3137085,4 10,4 C8.31956633,4 6.8004832,4.69082379 5.71125482,5.80396716 L4.72113255,3.988743 L4.72113255,3.988743 Z M14,11 L20,11 L17,16 L14,11 Z M6,10 L0,10 L3,5 L6,10 Z" id="刷新" fill="#666666" sketch:type="MSShapeGroup"></path>
            <path d="M0,0 L1,0 L1,1 L0,1 L0,0 Z M19,19 L20,19 L20,20 L19,20 L19,19 Z" id="点" opacity="0" fill="#D8D8D8" sketch:type="MSShapeGroup"></path>
        </g>
    </g>
</svg>