<?xml version="1.0" encoding="UTF-8" standalone="no"?>
<svg width="20px" height="20px" viewBox="0 0 20 20" version="1.1" xmlns="http://www.w3.org/2000/svg" xmlns:xlink="http://www.w3.org/1999/xlink" xmlns:sketch="http://www.bohemiancoding.com/sketch/ns">
    <!-- Generator: Sketch 3.3.3 (12081) - http://www.bohemiancoding.com/sketch -->
    <title>Attribute</title>
    <desc>Created with Sketch.</desc>
    <defs>
        <linearGradient x1="50%" y1="0%" x2="50%" y2="100%" id="linearGradient-1">
            <stop stop-color="#0095E6" offset="0%"></stop>
            <stop stop-color="#0085CD" offset="100%"></stop>
        </linearGradient>
    </defs>
    <g id="Assets" stroke="none" stroke-width="1" fill="none" fill-rule="evenodd" sketch:type="MSPage">
        <g id="Attribute" sketch:type="MSArtboardGroup">
            <path d="M0,3.00087166 C0,2.4481055 0.455305576,2 0.99180311,2 L19.0081969,2 C19.5559546,2 20,2.44463086 20,3.00087166 L20,16.9991283 C20,17.5518945 19.5446944,18 19.0081969,18 L0.99180311,18 C0.444045377,18 0,17.5553691 0,16.9991283 L0,3.00087166 Z M10,16 C13.3137085,16 16,13.3137085 16,10 C16,6.6862915 14.0461063,13.0098919 10,10 C5.95389366,6.9901081 4,6.6862915 4,10 C4,13.3137085 6.6862915,16 10,16 Z" id="属性" fill="url(#linearGradient-1)" sketch:type="MSShapeGroup"></path>
            <path d="M0,0 L1,0 L1,1 L0,1 L0,0 Z M19,19 L20,19 L20,20 L19,20 L19,19 Z" id="点-copy" opacity="0" fill="#D8D8D8" sketch:type="MSShapeGroup"></path>
        </g>
    </g>
</svg>