<?xml version="1.0" encoding="UTF-8" standalone="no"?>
<svg width="24px" height="24px" viewBox="0 0 24 24" version="1.1" xmlns="http://www.w3.org/2000/svg" xmlns:xlink="http://www.w3.org/1999/xlink" xmlns:sketch="http://www.bohemiancoding.com/sketch/ns">
    <!-- Generator: Sketch 3.4 (15575) - http://www.bohemiancoding.com/sketch -->
    <title>云课件_24</title>
    <desc>Created with Sketch.</desc>
    <defs></defs>
    <g id="新界面icon" stroke="none" stroke-width="1" fill="none" fill-rule="evenodd" sketch:type="MSPage">
        <g id="云课件_24" sketch:type="MSArtboardGroup" fill="#5798D9">
            <path d="M4.53442383,19.9998711 L4.53442383,20 L19,20 C21.7614237,20 24,17.7614237 24,15 C24,12.2385763 21.7614237,10 19,10 L18.7479653,10 C17.8598794,6.54954557 14.7276789,4 11,4 C7.25154091,4 4.10521769,6.57805007 3.23739237,10.0577882 C3.48603841,10.0197362 3.74071439,10 4,10 C6.76142375,10 9,12.2385763 9,15 C9,15.0860582 8.99782584,15.1716087 8.99352946,15.2565994 C8.86709525,12.884497 6.90362156,11 4.5,11 C2.01471863,11 0,13.0147186 0,15.5 C0,17.9852814 2.01471863,20 4.5,20 C4.51148471,20 4.52295937,19.999957 4.53442383,19.9998711 Z" id="icon_云课件" sketch:type="MSShapeGroup"></path>
        </g>
    </g>
</svg>