<?xml version="1.0" encoding="UTF-8" standalone="no"?>
<svg width="24px" height="24px" viewBox="0 0 24 24" version="1.1" xmlns="http://www.w3.org/2000/svg" xmlns:xlink="http://www.w3.org/1999/xlink" xmlns:sketch="http://www.bohemiancoding.com/sketch/ns">
    <!-- Generator: Sketch 3.4 (15575) - http://www.bohemiancoding.com/sketch -->
    <title>logo_24</title>
    <desc>Created with Sketch.</desc>
    <defs></defs>
    <g id="新界面icon" stroke="none" stroke-width="1" fill="none" fill-rule="evenodd" sketch:type="MSPage">
        <g id="logo_24" sketch:type="MSArtboardGroup">
            <g id="logo" sketch:type="MSLayerGroup" transform="translate(1.000000, 3.000000)">
                <path d="M0,6.75888791 C0,5.10009365 1.31031609,3.50085301 2.94418996,3.18348137 L19.05581,0.0538816043 C20.6818413,-0.26196664 22,0.828673988 22,2.4778076 L22,15.0041802 C22,16.6587258 20.6569187,18 18.9986131,18 L3.00138694,18 C1.3437667,18 0,16.6599003 0,14.9964873 L0,6.75888791 Z" id="Rectangle-341-Copy-5" fill="#65AD57" sketch:type="MSShapeGroup"></path>
                <path d="M10.9937134,6.46313026 L10.9937134,13.8605916 L12.5255508,13.8605916 L12.5255508,9.03681402 L16.0268936,13.8605916 L17.9963989,13.8605916 L17.9963989,5.59149906 L16.0268936,5.82118672 L16.0268936,11.104003 L12.5255508,6.28056205 L10.9937134,6.46313026 Z M4.02966309,7.29160416 L4.02966309,13.840694 L10,13.840694 L10,12.5846439 L5.63706149,12.5846439 L5.63706149,11.1308246 L9.77037166,10.9049881 L9.77037166,9.54996912 L5.63706149,9.77580561 L5.63706149,8.42078664 L10,8.04071143 L10,6.61409467 L4.02966309,7.29160416 Z" id="Path-200" fill="#FFFFFF" sketch:type="MSShapeGroup"></path>
            </g>
        </g>
    </g>
</svg>