<?xml version="1.0" encoding="UTF-8" standalone="no"?>
<svg width="24px" height="24px" viewBox="0 0 24 24" version="1.1" xmlns="http://www.w3.org/2000/svg" xmlns:xlink="http://www.w3.org/1999/xlink" xmlns:sketch="http://www.bohemiancoding.com/sketch/ns">
    <!-- Generator: Sketch 3.4 (15575) - http://www.bohemiancoding.com/sketch -->
    <title>思维导图_24</title>
    <desc>Created with Sketch.</desc>
    <defs></defs>
    <g id="新界面icon" stroke="none" stroke-width="1" fill="none" fill-rule="evenodd" sketch:type="MSPage">
        <g id="思维导图_24" sketch:type="MSArtboardGroup">
            <g id="icon_思维导图" sketch:type="MSLayerGroup" transform="translate(0.000000, 3.000000)">
                <rect id="Rectangle-310" fill="#5C81CC" sketch:type="MSShapeGroup" x="0" y="5" width="12" height="9" rx="1"></rect>
                <path d="M13,0 L22,0 L22,6 L13,6 L13,0 Z M15,12 L24,12 L24,18 L15,18 L15,12 Z M12,9 L18,9 L18,10 L12,10 L12,9 Z M15,8 L16,8 L16,9 L15,9 L15,8 Z M16,7 L17,7 L17,8 L16,8 L16,7 Z M17,6 L18,6 L18,7 L17,7 L17,6 Z M18,10 L19,10 L19,11 L18,11 L18,10 Z M19,11 L20,11 L20,12 L19,12 L19,11 Z" id="Rectangle-310-Copy" fill="#8A8F99" sketch:type="MSShapeGroup"></path>
            </g>
        </g>
    </g>
</svg>