<?xml version="1.0" encoding="UTF-8" standalone="no"?>
<svg width="24px" height="24px" viewBox="0 0 24 24" version="1.1" xmlns="http://www.w3.org/2000/svg" xmlns:xlink="http://www.w3.org/1999/xlink" xmlns:sketch="http://www.bohemiancoding.com/sketch/ns">
    <!-- Generator: Sketch 3.4 (15575) - http://www.bohemiancoding.com/sketch -->
    <title>多媒体_24</title>
    <desc>Created with Sketch.</desc>
    <defs></defs>
    <g id="新界面icon" stroke="none" stroke-width="1" fill="none" fill-rule="evenodd" sketch:type="MSPage">
        <g id="多媒体_24" sketch:type="MSArtboardGroup" fill="#E6A15C">
            <path d="M0,4.99742191 C0,3.89427625 0.901627257,3 2.00086422,3 L20.9991358,3 C22.1041826,3 23,3.89092539 23,4.99742191 L23,20.0025781 C23,21.1057238 22.0983727,22 20.9991358,22 L2.00086422,22 C0.895817426,22 0,21.1090746 0,20.0025781 L0,4.99742191 Z M7,11 C8.1045695,11 9,10.1045695 9,9 C9,7.8954305 8.1045695,7 7,7 C5.8954305,7 5,7.8954305 5,9 C5,10.1045695 5.8954305,11 7,11 Z M3,19 L20,18.9999997 C20,18.9999997 19.8459672,15.3465507 18.6770413,13.6569416 C17.5081155,11.9673326 14.1949841,11.1073988 12.760676,13.3645134 C10.7201353,16.0604819 9.88330078,16.746521 9.01818848,16.7546387 C8.47894287,16.7526245 8.15826416,15.010437 6.64813232,14.9921265 C3.34002686,15.0300293 3,19 3,19 Z" id="icon_多媒体" sketch:type="MSShapeGroup"></path>
        </g>
    </g>
</svg>