<?xml version="1.0" encoding="UTF-8" standalone="no"?>
<svg width="24px" height="24px" viewBox="0 0 24 24" version="1.1" xmlns="http://www.w3.org/2000/svg" xmlns:xlink="http://www.w3.org/1999/xlink" xmlns:sketch="http://www.bohemiancoding.com/sketch/ns">
    <!-- Generator: Sketch 3.4 (15575) - http://www.bohemiancoding.com/sketch -->
    <title>同步_24</title>
    <desc>Created with Sketch.</desc>
    <defs></defs>
    <g id="新界面icon" stroke="none" stroke-width="1" fill="none" fill-rule="evenodd" sketch:type="MSPage">
        <g id="同步_24" sketch:type="MSArtboardGroup" fill="#6F6F75">
            <path d="M15.0181415,18.3230869 L15.0156661,18.3189028 C14.1024341,18.7555229 13.0797674,19 12,19 C8.13400675,19 5,15.8659932 5,12 L6.02160645,12 L6.02173246,11.9997685 C6.56398216,11.9882071 7,11.5450223 7,11 C7,10.8076387 6.94568609,10.6279631 6.8515574,10.4754724 L6.85418701,10.4706421 L4.87689209,7.48394775 L4.8567311,7.48394775 C4.68165837,7.19392165 4.3634756,7 4,7 C3.61777822,7 3.28564169,7.21444041 3.1173363,7.52957534 L1.25591302,10.3319039 C1.09680431,10.5089928 1,10.7431915 1,11 C1,11.5522847 1.44771525,12 2,12 C2.01261843,12 2.02518227,11.9997663 2.03768744,11.9993029 L2.03808594,12 L3,12 C3,16.9705627 7.02943725,21 12,21 C13.4516947,21 14.8231132,20.6562966 16.0373193,20.0458258 L16.0356706,20.0430391 C16.3504057,19.8746106 16.5645142,19.5426924 16.5645142,19.1607666 C16.5645142,18.6084819 16.1167989,18.1607666 15.5645142,18.1607666 C15.3628871,18.1607666 15.1751972,18.220439 15.0181415,18.3230869 Z M9.00025817,5.66922685 L9.00225926,5.6725584 C9.91094015,5.24129089 10.9272918,5 12,5 C15.8657491,5 18.9996042,8.13361093 19,11.9992676 L18.0188599,11.9992676 L18.0183469,12.0001649 C18.0122444,12.0000551 18.0061287,12 18,12 C17.4477153,12 17,12.4477153 17,13 C17,13.1918063 17.054001,13.371 17.1476289,13.5232071 L17.1445312,13.5286255 L19.128418,16.5153198 L19.1428272,16.5153198 C19.3178061,16.8057518 19.6362185,17 20,17 C20.3637815,17 20.6821939,16.8057518 20.8571728,16.5153198 L20.857666,16.5153198 L22.7386595,13.6740883 C22.9009916,13.4963068 23,13.2597157 23,13 C23,12.4486426 22.553787,12.0015038 22.0027812,12.0000038 L22.0023804,11.9992676 L21,11.9992676 C20.9996042,7.02904143 16.9703186,3 12,3 C10.5505811,3 9.18118702,3.34262661 7.96839249,3.95130498 L7.97029693,3.95447563 C7.68042831,4.12958462 7.4866333,4.44767826 7.4866333,4.81103516 C7.4866333,5.36331991 7.93434855,5.81103516 8.4866333,5.81103516 C8.67442935,5.81103516 8.85013468,5.75926867 9.00025817,5.66922685 Z" id="icon_同步" sketch:type="MSShapeGroup"></path>
        </g>
    </g>
</svg>