<?xml version="1.0" encoding="UTF-8" standalone="no"?>
<svg width="24px" height="24px" viewBox="0 0 24 24" version="1.1" xmlns="http://www.w3.org/2000/svg" xmlns:xlink="http://www.w3.org/1999/xlink" xmlns:sketch="http://www.bohemiancoding.com/sketch/ns">
    <!-- Generator: Sketch 3.4 (15575) - http://www.bohemiancoding.com/sketch -->
    <title>文字_24</title>
    <desc>Created with Sketch.</desc>
    <defs></defs>
    <g id="新界面icon" stroke="none" stroke-width="1" fill="none" fill-rule="evenodd" sketch:type="MSPage">
        <g id="文字_24" sketch:type="MSArtboardGroup" fill="#6F6F75">
            <path d="M2,2 L22,2 L22,4 L2,4 L2,2 Z M2,4 L6,4 C6,4 4.40283203,4 3.75390625,4.9753418 C3.10498047,5.95068359 3,7 3,7 L2,7 L2,4 Z M20.2926636,4.87036133 C19.7123413,4 18,4 18,4 L22,4 L22,7 L21,7 C21,7 20.8729858,5.74072266 20.2926636,4.87036133 Z M10,4 L14,4 L14,20 L10,20 L10,4 Z M7,21 C7,20.4477153 7.4556644,20 7.99539757,20 L16.0046024,20 C16.5543453,20 17,20.4438648 17,21 L17,22 L7,22 L7,21 Z" id="icon_文字" sketch:type="MSShapeGroup"></path>
        </g>
    </g>
</svg>