<?xml version="1.0" encoding="utf-8"?>
<!-- Generator: Adobe Illustrator 18.0.0, SVG Export Plug-In . SVG Version: 6.00 Build 0)  -->
<!DOCTYPE svg PUBLIC "-//W3C//DTD SVG 1.1//EN" "http://www.w3.org/Graphics/SVG/1.1/DTD/svg11.dtd">
<svg version="1.1" id="图层_1" xmlns:sketch="http://www.bohemiancoding.com/sketch/ns"
	 xmlns="http://www.w3.org/2000/svg" xmlns:xlink="http://www.w3.org/1999/xlink" x="0px" y="0px" viewBox="0 0 16 16"
	 enable-background="new 0 0 16 16" xml:space="preserve">
<title>➕</title>
<desc>Created with Sketch.</desc>
<g id="_x31_" transform="translate(480.000000, 197.000000)" sketch:type="MSLayerGroup">
	<g id="_x2795_-_x2B_-_x2795_" transform="translate(26.000000, 216.000000)" sketch:type="MSShapeGroup">
		<path id="_x2795_" fill="white" d="M-497-406v-4c0-0.5-0.4-1-1-1c-0.6,0-1,0.4-1,1v4h-4c-0.5,0-1,0.4-1,1c0,0.6,0.4,1,1,1h4v4
			c0,0.5,0.4,1,1,1c0.6,0,1-0.4,1-1v-4h4c0.5,0,1-0.4,1-1c0-0.6-0.4-1-1-1H-497z"/>
	</g>
</g>
</svg>
