<?xml version="1.0" encoding="UTF-8" standalone="no"?>
<svg width="24px" height="24px" viewBox="0 0 24 24" version="1.1" xmlns="http://www.w3.org/2000/svg" xmlns:xlink="http://www.w3.org/1999/xlink" xmlns:sketch="http://www.bohemiancoding.com/sketch/ns">
    <!-- Generator: Sketch 3.4 (15575) - http://www.bohemiancoding.com/sketch -->
    <title>属性_24</title>
    <desc>Created with Sketch.</desc>
    <defs></defs>
    <g id="新界面icon" stroke="none" stroke-width="1" fill="none" fill-rule="evenodd" sketch:type="MSPage">
        <g id="属性_24" sketch:type="MSArtboardGroup" fill="#919499">
            <path d="M16.6558736,16.6030807 C16.1403709,17.2695462 15.7007142,17.8718604 15.4828445,18.2454567 C14.9714898,19.1223122 13.1855391,21.9999459 10.9478055,21.9999459 C9.98909979,22.0072741 9.06185657,21.2693495 8.13869281,20.3676007 C8.52626811,20.2816601 9.10026024,20.1269401 9.60247528,19.8822944 C11.2927246,19.1063233 11.8110549,18.073296 11.8110549,18.073296 C11.8110549,18.073296 10.0243243,19.4719815 7.21430316,19.4311677 C7.07299809,19.2863685 6.93157445,19.1422792 6.78993417,19.0009824 C5.4135246,17.6279114 2,14.2916487 2,13.3943471 C2,12.4970455 2.95074194,12.0048702 2.95074194,12.0048702 C2.95074194,12.0048702 6.17592336,10.0731435 6.93615587,9.41005365 C7.19046808,9.18823751 7.70794269,8.74854291 8.30104428,8.24825145 L16.6558736,16.6030807 Z M17.4924247,15.5452175 C17.9542576,14.9718744 18.4165851,14.4127788 18.7952776,13.9627973 C19.8632376,12.6937931 19.7481858,12.1356272 18.9439062,11.1441757 C18.1396267,10.1527241 18.031194,9.41005365 18.3484289,8.817362 C18.6656638,8.22467034 20.5918188,6.62656992 21.1140048,6.36921857 C21.6361908,6.11186723 22,5.78130175 22,5.18701848 C22,4.59273522 19.6833187,2 19.1143177,2 C18.5453167,2 17.9031447,2.18511657 17.5845859,2.77621671 C17.2660272,3.36731685 15.4848904,5.78130177 14.7393403,6.0452644 C13.9937901,6.30922704 13.5042182,5.54292731 13.062424,5.22019746 C12.6206299,4.89746761 11.7159809,5.42576022 11.262152,5.78130175 C11.0447049,5.95165558 10.2170252,6.63960265 9.33018156,7.38297439 L17.4924247,15.5452175 Z" id="icon_属性" sketch:type="MSShapeGroup"></path>
        </g>
    </g>
</svg>