<?xml version="1.0" encoding="UTF-8" standalone="no"?>
<svg width="16px" height="16px" viewBox="0 0 16 16" version="1.1" xmlns="http://www.w3.org/2000/svg" xmlns:xlink="http://www.w3.org/1999/xlink" xmlns:sketch="http://www.bohemiancoding.com/sketch/ns">
    <!-- Generator: Sketch 3.4 (15575) - http://www.bohemiancoding.com/sketch -->
    <title>标题图标_16</title>
    <desc>Created with Sketch.</desc>
    <defs></defs>
    <g id="新界面icon" stroke="none" stroke-width="1" fill="none" fill-rule="evenodd" sketch:type="MSPage">
        <g id="标题图标_16" sketch:type="MSArtboardGroup" fill="#FFFFFF">
            <g id="icon" sketch:type="MSLayerGroup" transform="translate(3.000000, 2.000000)">
                <path d="M6,1 L1,1 L1,11 L9,11 L9,4 L6,4 L6,1 Z M0,0 L10,0 L10,12 L0,12 L0,0 Z M7,0 L10,0 L10,1 L7,1 L7,0 Z M8,1 L10,1 L10,2 L8,2 L8,1 Z M9,2 L10,2 L10,3 L9,3 L9,2 Z" id="Rectangle-306" fill-opacity="0.6" sketch:type="MSShapeGroup"></path>
                <path d="M2,4 L5,4 L5,5 L2,5 L2,4 Z M2,6 L8,6 L8,7 L2,7 L2,6 Z M2,8 L8,8 L8,9 L2,9 L2,8 Z" id="Rectangle-312" fill-opacity="0.3" sketch:type="MSShapeGroup"></path>
            </g>
        </g>
    </g>
</svg>