<?xml version="1.0" encoding="UTF-8" standalone="no"?>
<svg width="16px" height="16px" viewBox="0 0 16 16" version="1.1" xmlns="http://www.w3.org/2000/svg" xmlns:xlink="http://www.w3.org/1999/xlink" xmlns:sketch="http://www.bohemiancoding.com/sketch/ns">
    <!-- Generator: Sketch 3.4 (15575) - http://www.bohemiancoding.com/sketch -->
    <title>关闭_16</title>
    <desc>Created with Sketch.</desc>
    <defs></defs>
    <g id="新界面icon" stroke="none" stroke-width="1" fill="none" fill-rule="evenodd" sketch:type="MSPage">
        <g id="关闭_16" sketch:type="MSArtboardGroup" fill="#d9d9db">
            <path d="M5,12 L6,12 L6,11 L7,11 L7,10 L8,10 L8,9 L8,9 L8,10 L9,10 L9,11 L10,11 L10,12 L11,12 L11,13 L13,13 L13,11 L12,11 L12,10 L11,10 L11,9 L10,9 L10,8 L9.5,8 L10,8 L10,7 L11,7 L11,6 L12,6 L12,5 L13,5 L13,3 L11,3 L11,4 L10,4 L10,5 L9,5 L9,6 L8,6 L8,6.5 L8,6 L7,6 L7,5 L6,5 L6,4 L5,4 L5,3 L3,3 L3,5 L4,5 L4,6 L5,6 L5,7 L6,7 L6,8 L7,8 L7,8 L6,8 L6,9 L5,9 L5,10 L4,10 L4,11 L3,11 L3,13 L5,13 L5,12 Z" id="Rectangle-35" sketch:type="MSShapeGroup"></path>
        </g>
    </g>
</svg>