<?xml version="1.0" encoding="UTF-8" standalone="no"?>
<svg width="16px" height="16px" viewBox="0 0 16 16" version="1.1" xmlns="http://www.w3.org/2000/svg" xmlns:xlink="http://www.w3.org/1999/xlink" xmlns:sketch="http://www.bohemiancoding.com/sketch/ns">
    <!-- Generator: Sketch 3.4 (15575) - http://www.bohemiancoding.com/sketch -->
    <title>Rectangle 7</title>
    <desc>Created with Sketch.</desc>
    <defs></defs>
    <g id="制作快联" stroke="none" stroke-width="1" fill="none" fill-rule="evenodd" sketch:type="MSPage">
        <g id="个人信息" sketch:type="MSArtboardGroup" transform="translate(-848.000000, -131.000000)" fill="#808080">
            <g id="制作快联" sketch:type="MSLayerGroup" transform="translate(848.000000, 129.000000)">
                <g id="icon" transform="translate(0.000000, 2.000000)" sketch:type="MSShapeGroup">
                    <path d="M14,6 L14,1.9955775 C14,1.44483697 13.5492199,1 12.9931545,1 L1.00684547,1 C0.449948758,1 0,1.44573523 0,1.9955775 L0,11.0044225 C0,11.555163 0.450780073,12 1.00684547,12 L10.000004,12 C10.001548,12.5636313 10.4485836,13 10.9998075,13 L14.0001925,13 C14.5562834,13 15,12.5509732 15,11.9970707 L15,6 L14,6 L14,3 L13,3 L13,2.50043583 C13,2.23079681 12.7759869,2 12.4996527,2 L1.50034732,2 C1.22900057,2 1,2.22405275 1,2.50043583 L1,9.49956417 C1,9.76920319 1.22401312,10 1.50034732,10 L9,10 L9,12 L10.000004,12 C10.0000013,11.9990239 10,11.9980475 10,11.9970707 L10,6 L14,6 Z M5,12 L9,12 L9,14 L5,14 L5,12 Z M4,14 L10,14 L10,15 L4,15 L4,14 Z M11,4 L14,4 L14,5 L11,5 L11,4 Z" id="Rectangle-7"></path>
                </g>
            </g>
        </g>
    </g>
</svg>